<?xml version="1.0" standalone="no"?><!DOCTYPE svg PUBLIC "-//W3C//DTD SVG 1.1//EN" "http://www.w3.org/Graphics/SVG/1.1/DTD/svg11.dtd"><svg t="1709359764862" class="icon" viewBox="0 0 1024 1024" version="1.1" xmlns="http://www.w3.org/2000/svg" p-id="5084" xmlns:xlink="http://www.w3.org/1999/xlink" width="200" height="200"><path d="M512 139.636364c204.8 0 372.363636 167.563636 372.363636 372.363636s-167.563636 372.363636-372.363636 372.363636S139.636364 716.8 139.636364 512 307.2 139.636364 512 139.636364m0-46.545455C281.6 93.090909 93.090909 281.6 93.090909 512s188.509091 418.909091 418.909091 418.909091 418.909091-188.509091 418.909091-418.909091S742.4 93.090909 512 93.090909z" p-id="5085" fill="#69b1ff"></path><path d="M672.581818 472.436364c102.4 44.218182 83.781818 183.854545 2.327273 204.8H328.145455c-48.872727-16.290909-90.763636-132.654545 16.290909-183.854546h20.945454c41.890909-188.509091 237.381818-162.909091 256-23.272727l51.2 2.327273zM584.145455 628.363636c13.963636-13.963636 13.963636-32.581818 13.963636-55.854545s0-41.890909-13.963636-55.854546c-9.309091-9.309091-20.945455-16.290909-37.236364-16.290909-16.290909 0-27.927273 4.654545-37.236364 16.290909-13.963636 13.963636-13.963636 32.581818-13.963636 55.854546s0 41.890909 13.963636 55.854545c9.309091 9.309091 23.272727 16.290909 37.236364 16.290909 16.290909 0 27.927273-4.654545 37.236364-16.290909z m-179.2-16.290909c-4.654545-6.981818-6.981818-11.636364-6.981819-39.563636s2.327273-34.909091 6.981819-39.563636c4.654545-4.654545 9.309091-6.981818 18.618181-6.981819 13.963636 0 20.945455 9.309091 23.272728 20.945455h27.927272c-4.654545-30.254545-25.6-44.218182-51.2-44.218182-16.290909 0-27.927273 4.654545-37.236363 16.290909-13.963636 13.963636-13.963636 32.581818-13.963637 55.854546s0 41.890909 13.963637 55.854545c9.309091 9.309091 23.272727 16.290909 37.236363 16.290909 25.6 0 46.545455-16.290909 51.2-44.218182h-27.927272c-2.327273 11.636364-9.309091 20.945455-23.272728 20.945455-9.309091-4.654545-13.963636-6.981818-18.618181-11.636364z m141.963636-86.109091c6.981818 0 13.963636 2.327273 18.618182 6.981819 4.654545 6.981818 6.981818 11.636364 6.981818 39.563636s-2.327273 32.581818-6.981818 39.563636c-4.654545 4.654545-11.636364 6.981818-18.618182 6.981818-6.981818 0-13.963636-2.327273-18.618182-6.981818-4.654545-6.981818-6.981818-11.636364-6.981818-39.563636s2.327273-34.909091 6.981818-39.563636c4.654545-4.654545 11.636364-6.981818 18.618182-6.981819z m118.690909 104.727273h-32.581818l23.272727-25.6c4.654545-6.981818 9.309091-11.636364 9.309091-18.618182 0-13.963636-9.309091-23.272727-25.6-23.272727-13.963636 0-25.6 9.309091-25.6 23.272727h13.963636c0-6.981818 4.654545-9.309091 9.309091-9.309091 6.981818 0 9.309091 4.654545 9.309091 9.309091s-2.327273 6.981818-4.654545 9.309091l-30.254546 34.909091v13.963636h48.872728l4.654545-13.963636z m-20.945455-172.218182c0-53.527273-60.509091-74.472727-60.50909-74.472727 46.545455-76.8 111.709091-16.290909 109.381818 16.290909 48.872727-16.290909 74.472727 58.181818 30.254545 76.8-27.927273-25.6-34.909091-20.945455-79.127273-18.618182z" p-id="5086" fill="#69b1ff"></path></svg>