<?xml version="1.0" standalone="no"?><!DOCTYPE svg PUBLIC "-//W3C//DTD SVG 1.1//EN" "http://www.w3.org/Graphics/SVG/1.1/DTD/svg11.dtd"><svg height="1024" node-id="1" sillyvg="true" template-height="1024" template-width="1024" version="1.1" viewBox="0 0 1024 1024" width="1024" xmlns="http://www.w3.org/2000/svg" xmlns:xlink="http://www.w3.org/1999/xlink"><defs node-id="55"><linearGradient gradientUnits="objectBoundingBox" id="linear-gradient" node-id="3" spreadMethod="pad" x1="0.5" x2="0.5" y1="0" y2="1"><stop offset="0" stop-color="#e1e1e1"></stop><stop offset="1" stop-color="#ffffff" stop-opacity="0"></stop></linearGradient><linearGradient gradientUnits="objectBoundingBox" id="linear-gradient-2" node-id="6" spreadMethod="pad" x1="0.5" x2="0.5" y1="0" y2="1"><stop offset="0" stop-color="#e2e2e2"></stop><stop offset="1" stop-color="#bcbcbc"></stop></linearGradient><linearGradient gradientUnits="objectBoundingBox" id="linear-gradient-5" node-id="9" spreadMethod="pad" x1="0.5" x2="0.5" y1="0" y2="1"><stop offset="0" stop-color="#ececec"></stop><stop offset="1" stop-color="#c5c5c5"></stop></linearGradient><linearGradient gradientUnits="objectBoundingBox" id="linear-gradient-6" node-id="12" spreadMethod="pad" x1="0" x2="1" y1="0.68" y2="0.5"><stop offset="0" stop-color="#dedede"></stop><stop offset="1" stop-color="#ffffff"></stop></linearGradient><linearGradient gradientUnits="objectBoundingBox" id="linear-gradient-10" node-id="15" spreadMethod="pad" x1="0.5" x2="0.5" y1="0" y2="1"><stop offset="0" stop-color="#d2d2d2"></stop><stop offset="1" stop-color="#b2b2b2"></stop></linearGradient><clipPath id="clip-审核中" node-id="18"><path d="M 0.00 0.00 L 1024.00 0.00 L 1024.00 1024.00 L 0.00 1024.00 Z" fill="#000000" fill-rule="nonzero" node-id="88" stroke="none" target-height="1024" target-width="1024" target-x="0" target-y="0"></path></clipPath></defs><g clip-path="url(#clip-审核中)" id="审核中" node-id="20"><path d="M 0.00 0.00 L 1024.00 0.00 L 1024.00 1024.00 L 0.00 1024.00 Z" fill="#ffffff" fill-rule="nonzero" node-id="93" stroke="none" target-height="1024" target-width="1024" target-x="0" target-y="0"></path><path d="M 1024.00 798.08 L 1023.72 805.50 L 1022.89 812.89 L 1021.53 820.25 L 1019.62 827.60 L 1017.14 834.97 L 1014.07 842.36 L 1010.64 849.36 L 1006.67 856.35 L 1002.16 863.36 L 997.07 870.39 L 991.37 877.45 L 985.03 884.54 L 977.31 892.34 L 968.80 900.13 L 959.44 907.90 L 949.18 915.67 L 937.98 923.42 L 926.90 930.46 L 915.00 937.43 L 902.26 944.32 L 888.62 951.12 L 874.04 957.83 L 859.61 963.95 L 844.56 969.86 L 828.88 975.53 L 812.55 980.98 L 796.26 985.98 L 779.45 990.73 L 762.11 995.21 L 744.23 999.43 L 726.40 1003.24 L 708.17 1006.76 L 689.52 1009.99 L 670.45 1012.91 L 651.43 1015.46 L 632.11 1017.70 L 612.50 1019.61 L 592.58 1021.19 L 566.04 1022.74 L 539.18 1023.68 L 512.00 1024.00 L 484.81 1023.68 L 457.96 1022.74 L 431.42 1021.19 L 411.50 1019.61 L 391.89 1017.70 L 372.57 1015.46 L 353.55 1012.91 L 334.48 1009.99 L 315.83 1006.76 L 297.60 1003.24 L 279.77 999.43 L 261.89 995.21 L 244.55 990.73 L 227.74 985.98 L 211.45 980.98 L 195.12 975.53 L 179.44 969.86 L 164.39 963.95 L 149.96 957.83 L 135.38 951.12 L 121.74 944.32 L 109.00 937.43 L 97.10 930.46 L 86.02 923.42 L 74.82 915.67 L 64.56 907.90 L 55.20 900.13 L 46.69 892.34 L 38.97 884.54 L 32.63 877.45 L 26.93 870.39 L 21.84 863.36 L 17.33 856.35 L 13.36 849.36 L 9.93 842.36 L 6.86 834.97 L 4.38 827.60 L 2.47 820.25 L 1.11 812.89 L 0.28 805.50 L 0.00 798.08 L 0.28 790.65 L 1.11 783.27 L 2.47 775.91 L 4.38 768.56 L 6.86 761.19 L 9.93 753.80 L 13.36 746.80 L 17.33 739.80 L 21.84 732.80 L 26.93 725.77 L 32.63 718.71 L 38.97 711.62 L 46.69 703.82 L 55.20 696.03 L 64.56 688.26 L 74.82 680.49 L 86.02 672.74 L 97.10 665.69 L 109.00 658.72 L 121.74 651.84 L 135.38 645.04 L 149.96 638.33 L 164.39 632.21 L 179.44 626.30 L 195.12 620.62 L 211.45 615.18 L 227.74 610.17 L 244.55 605.43 L 261.89 600.95 L 279.77 596.73 L 297.60 592.92 L 315.83 589.40 L 334.48 586.17 L 353.55 583.25 L 372.57 580.69 L 391.89 578.46 L 411.50 576.55 L 431.42 574.97 L 457.96 573.42 L 484.81 572.48 L 512.00 572.16 L 539.18 572.48 L 566.04 573.42 L 592.58 574.97 L 612.50 576.55 L 632.11 578.46 L 651.43 580.69 L 670.45 583.25 L 689.52 586.17 L 708.17 589.40 L 726.40 592.92 L 744.23 596.73 L 762.11 600.95 L 779.45 605.43 L 796.26 610.17 L 812.55 615.18 L 828.88 620.62 L 844.56 626.30 L 859.61 632.21 L 874.04 638.33 L 888.62 645.04 L 902.26 651.84 L 915.00 658.72 L 926.90 665.69 L 937.98 672.74 L 949.18 680.49 L 959.44 688.26 L 968.80 696.03 L 977.31 703.82 L 985.03 711.62 L 991.37 718.71 L 997.07 725.77 L 1002.16 732.80 L 1006.67 739.80 L 1010.64 746.80 L 1014.07 753.80 L 1017.14 761.19 L 1019.62 768.56 L 1021.53 775.91 L 1022.89 783.27 L 1023.72 790.65 L 1024.00 798.08 Z" fill="url(#linear-gradient)" fill-rule="nonzero" group-id="1,2" id="椭圆_1" node-id="23" stroke="none" target-height="451.84393" target-width="1024" target-x="0" target-y="572.15704"></path><path d="M 211.22 604.24 L 219.24 604.24 L 219.24 671.08 L 211.22 671.08 Z" fill="#c5c5c5" fill-rule="nonzero" group-id="1,3,8" id="矩形_4" node-id="25" stroke="none" target-height="66.841" target-width="8.020996" target-x="211.21701" target-y="604.241"></path><path d="M 215.47 496.83 L 217.81 499.51 L 223.85 506.71 L 232.10 517.20 L 236.56 523.23 L 241.10 529.75 L 245.43 536.43 L 249.35 543.10 L 252.80 549.82 L 255.39 556.02 L 256.72 560.21 L 257.47 563.94 L 257.74 567.28 L 257.50 571.67 L 256.86 575.86 L 255.83 579.87 L 254.41 583.73 L 252.61 587.45 L 250.51 590.92 L 248.09 594.16 L 245.35 597.17 L 242.34 599.91 L 239.11 602.32 L 235.64 604.43 L 231.92 606.23 L 228.06 607.65 L 224.04 608.68 L 219.85 609.31 L 215.47 609.55 L 211.08 609.31 L 206.89 608.68 L 202.87 607.65 L 199.01 606.23 L 195.29 604.43 L 191.82 602.32 L 188.59 599.91 L 185.58 597.17 L 182.84 594.16 L 180.42 590.92 L 178.32 587.45 L 176.52 583.73 L 175.10 579.87 L 174.07 575.86 L 173.43 571.67 L 173.19 567.28 L 173.46 563.94 L 174.21 560.21 L 175.54 556.02 L 178.13 549.82 L 181.58 543.10 L 185.50 536.43 L 189.83 529.75 L 194.37 523.23 L 198.83 517.20 L 207.08 506.71 L 213.12 499.51 L 215.47 496.83 Z" fill="url(#linear-gradient-2)" fill-rule="nonzero" group-id="1,3,9" id="路径_3" node-id="26" stroke="none" target-height="112.71997" target-width="84.54001" target-x="173.195" target-y="496.828"></path><path d="M 799.42 633.65 L 807.44 633.65 L 807.44 689.80 L 799.42 689.80 Z" fill="#c5c5c5" fill-rule="nonzero" group-id="1,4,10" id="矩形_4-2" node-id="28" stroke="none" target-height="56.145996" target-width="8.020996" target-x="799.41504" target-y="633.651"></path><path d="M 804.58 542.40 L 806.58 544.69 L 811.74 550.85 L 818.79 559.81 L 822.59 564.96 L 826.47 570.52 L 830.17 576.23 L 833.52 581.93 L 836.47 587.67 L 838.68 592.97 L 839.81 596.55 L 840.45 599.73 L 840.68 602.58 L 840.48 606.33 L 839.93 609.90 L 839.05 613.33 L 837.84 616.63 L 835.73 620.82 L 833.16 624.63 L 830.11 628.10 L 826.64 631.16 L 822.82 633.73 L 818.63 635.84 L 815.34 637.05 L 811.91 637.93 L 808.33 638.47 L 804.58 638.67 L 800.84 638.47 L 797.26 637.93 L 793.83 637.05 L 790.53 635.84 L 786.34 633.73 L 782.53 631.16 L 779.06 628.10 L 776.01 624.63 L 773.43 620.82 L 771.33 616.63 L 770.11 613.33 L 769.23 609.90 L 768.69 606.33 L 768.49 602.58 L 768.71 599.73 L 769.36 596.55 L 770.49 592.97 L 772.70 587.67 L 775.64 581.93 L 778.99 576.23 L 782.70 570.52 L 786.57 564.96 L 790.38 559.81 L 797.43 550.85 L 802.58 544.69 L 804.58 542.40 Z" fill="url(#linear-gradient-2)" fill-rule="nonzero" group-id="1,4,11" id="路径_3-2" node-id="29" stroke="none" target-height="96.26697" target-width="72.18799" target-x="768.489" target-y="542.405"></path><path d="M 881.07 677.82 L 886.37 677.82 L 886.37 709.62 L 881.07 709.62 Z" fill="#c5c5c5" fill-rule="nonzero" group-id="1,5,12" id="矩形_4-3" node-id="31" stroke="none" target-height="31.796997" target-width="5.299011" target-x="881.07306" target-y="677.822"></path><path d="M 884.55 625.88 L 886.06 627.61 L 889.83 632.18 L 894.74 638.64 L 897.26 642.27 L 899.64 646.03 L 901.77 649.85 L 903.41 653.41 L 904.26 655.83 L 904.75 657.96 L 904.92 659.83 L 904.57 663.55 L 903.65 666.96 L 902.14 670.12 L 900.12 672.97 L 897.69 675.40 L 894.83 677.42 L 891.68 678.93 L 888.27 679.86 L 884.55 680.20 L 880.83 679.86 L 877.43 678.93 L 874.27 677.42 L 871.41 675.40 L 868.99 672.97 L 866.96 670.12 L 865.46 666.96 L 864.53 663.55 L 864.18 659.83 L 864.35 657.96 L 864.84 655.83 L 865.69 653.41 L 867.33 649.85 L 869.46 646.03 L 871.85 642.27 L 874.37 638.64 L 879.27 632.18 L 883.04 627.61 L 884.55 625.88 Z" fill="url(#linear-gradient-2)" fill-rule="nonzero" group-id="1,5,13" id="路径_3-3" node-id="32" stroke="none" target-height="54.325012" target-width="40.73999" target-x="864.181" target-y="625.879"></path><path d="M 428.35 181.43 L 697.42 205.25 L 701.81 205.50 L 706.00 206.17 L 710.02 207.26 L 713.89 208.76 L 717.61 210.66 L 721.08 212.88 L 724.32 215.43 L 727.35 218.33 L 730.08 221.50 L 732.50 224.92 L 734.61 228.59 L 736.42 232.53 L 737.85 236.61 L 738.88 240.85 L 739.51 245.28 L 739.75 249.92 L 739.75 635.19 L 739.51 639.83 L 738.88 644.26 L 737.85 648.51 L 736.42 652.58 L 734.61 656.53 L 732.50 660.19 L 730.08 663.61 L 727.35 666.78 L 724.32 669.68 L 721.08 672.24 L 717.61 674.46 L 713.89 676.35 L 710.02 677.86 L 706.00 678.94 L 701.81 679.61 L 697.42 679.86 L 428.35 656.04 L 423.96 655.79 L 419.77 655.12 L 415.75 654.03 L 411.87 652.53 L 408.16 650.63 L 404.68 648.41 L 401.44 645.86 L 398.42 642.96 L 395.68 639.79 L 393.26 636.37 L 391.15 632.70 L 389.34 628.76 L 387.92 624.69 L 386.89 620.44 L 386.25 616.02 L 386.02 611.37 L 386.02 226.10 L 386.25 221.45 L 386.89 217.02 L 387.92 212.78 L 389.34 208.71 L 391.15 204.76 L 393.26 201.09 L 395.68 197.68 L 398.42 194.51 L 401.44 191.61 L 404.68 189.05 L 408.16 186.83 L 411.87 184.94 L 415.75 183.43 L 419.77 182.34 L 423.96 181.67 L 428.35 181.43 Z" fill="url(#linear-gradient-5)" fill-rule="nonzero" group-id="1,6,14" id="路径_10" node-id="34" stroke="none" target-height="498.437" target-width="353.734" target-x="386.016" target-y="181.425"></path><path d="M 448.08 208.15 L 677.69 228.47 L 681.44 228.68 L 685.01 229.25 L 688.45 230.18 L 691.75 231.46 L 695.93 233.68 L 699.75 236.39 L 703.23 239.63 L 706.28 243.28 L 708.86 247.31 L 710.98 251.75 L 712.19 255.22 L 713.07 258.84 L 713.62 262.62 L 713.82 266.59 L 713.82 595.36 L 713.62 599.32 L 713.07 603.10 L 712.19 606.72 L 710.98 610.20 L 708.86 614.64 L 706.28 618.66 L 703.24 622.32 L 699.75 625.55 L 695.93 628.27 L 691.75 630.49 L 688.45 631.77 L 685.01 632.70 L 681.44 633.27 L 677.69 633.48 L 448.08 613.16 L 444.33 612.95 L 440.75 612.38 L 437.32 611.45 L 434.02 610.17 L 429.84 607.95 L 426.02 605.23 L 422.53 601.99 L 419.48 598.34 L 416.91 594.31 L 414.79 589.88 L 413.58 586.40 L 412.70 582.78 L 412.15 579.00 L 411.95 575.04 L 411.95 246.27 L 412.15 242.30 L 412.70 238.52 L 413.58 234.90 L 414.79 231.43 L 416.91 226.99 L 419.48 222.96 L 422.53 219.31 L 426.02 216.07 L 429.84 213.36 L 434.02 211.14 L 437.32 209.86 L 440.75 208.93 L 444.33 208.36 L 448.08 208.15 Z" fill="#ffffff" fill-rule="nonzero" group-id="1,6,15" id="路径_11" node-id="35" stroke="none" target-height="425.33704" target-width="301.86304" target-x="411.953" target-y="208.146"></path><path d="M 466.55 228.21 L 466.34 230.66 L 465.79 232.90 L 464.91 234.96 L 463.70 236.85 L 462.26 238.44 L 460.59 239.76 L 458.71 240.75 L 456.70 241.36 L 454.52 241.58 L 452.33 241.36 L 450.32 240.75 L 448.44 239.76 L 446.77 238.44 L 445.34 236.85 L 444.13 234.96 L 443.24 232.90 L 442.69 230.66 L 442.49 228.21 L 442.69 225.77 L 443.24 223.53 L 444.13 221.47 L 445.34 219.58 L 446.77 217.99 L 448.44 216.67 L 450.32 215.68 L 452.33 215.07 L 454.52 214.85 L 456.70 215.07 L 458.71 215.68 L 460.59 216.67 L 462.26 217.99 L 463.70 219.58 L 464.91 221.47 L 465.79 223.53 L 466.34 225.77 L 466.55 228.21 Z" fill="#a4a4a4" fill-rule="nonzero" group-id="1,6,16" id="椭圆_17" node-id="36" stroke="none" target-height="26.736008" target-width="24.062012" target-x="442.486" target-y="214.846"></path><path d="M 538.74 233.56 L 538.51 236.00 L 537.90 238.24 L 536.91 240.31 L 535.58 242.18 L 533.99 243.78 L 532.12 245.10 L 530.04 246.09 L 527.81 246.70 L 525.37 246.93 L 522.93 246.70 L 520.69 246.09 L 518.62 245.10 L 516.74 243.78 L 515.15 242.18 L 513.83 240.31 L 512.84 238.24 L 512.23 236.00 L 512.00 233.56 L 512.23 231.12 L 512.84 228.88 L 513.83 226.81 L 515.15 224.94 L 516.74 223.35 L 518.62 222.02 L 520.69 221.03 L 522.93 220.42 L 525.37 220.19 L 527.81 220.42 L 530.04 221.03 L 532.12 222.02 L 533.99 223.35 L 535.58 224.94 L 536.91 226.81 L 537.90 228.88 L 538.51 231.12 L 538.74 233.56 Z" fill="#a4a4a4" fill-rule="nonzero" group-id="1,6,17" id="椭圆_18" node-id="37" stroke="none" target-height="26.735992" target-width="26.736023" target-x="512" target-y="220.193"></path><path d="M 608.25 238.91 L 608.04 241.36 L 607.49 243.59 L 606.61 245.66 L 605.40 247.55 L 603.97 249.13 L 602.29 250.45 L 600.42 251.44 L 598.41 252.05 L 596.22 252.28 L 594.03 252.05 L 592.02 251.44 L 590.15 250.45 L 588.47 249.13 L 587.04 247.55 L 585.83 245.66 L 584.94 243.59 L 584.39 241.36 L 584.19 238.91 L 584.39 236.46 L 584.94 234.22 L 585.83 232.16 L 587.04 230.27 L 588.47 228.68 L 590.15 227.37 L 592.02 226.37 L 594.03 225.77 L 596.22 225.54 L 598.41 225.77 L 600.42 226.37 L 602.29 227.37 L 603.97 228.68 L 605.40 230.27 L 606.61 232.16 L 607.49 234.22 L 608.04 236.46 L 608.25 238.91 Z" fill="#a4a4a4" fill-rule="nonzero" group-id="1,6,18" id="椭圆_19" node-id="38" stroke="none" target-height="26.736008" target-width="24.062012" target-x="584.188" target-y="225.54"></path><path d="M 677.77 245.59 L 677.58 247.80 L 677.09 249.81 L 676.31 251.66 L 675.23 253.37 L 673.96 254.80 L 672.47 255.98 L 670.80 256.87 L 669.01 257.42 L 667.07 257.62 L 665.13 257.42 L 663.34 256.87 L 661.67 255.98 L 660.19 254.80 L 658.91 253.37 L 657.84 251.66 L 657.05 249.81 L 656.56 247.80 L 656.38 245.59 L 656.56 243.39 L 657.05 241.37 L 657.84 239.52 L 658.91 237.82 L 660.19 236.39 L 661.67 235.20 L 663.34 234.31 L 665.13 233.76 L 667.07 233.56 L 669.01 233.76 L 670.80 234.31 L 672.47 235.20 L 673.96 236.39 L 675.23 237.82 L 676.31 239.52 L 677.09 241.37 L 677.58 243.39 L 677.77 245.59 Z" fill="#a4a4a4" fill-rule="nonzero" group-id="1,6,19" id="椭圆_20" node-id="39" stroke="none" target-height="24.062012" target-width="21.390015" target-x="656.376" target-y="233.561"></path><path d="M 453.94 227.71 L 453.01 224.68 L 450.95 216.86 L 449.85 211.87 L 448.81 206.17 L 448.03 200.33 L 447.64 194.50 L 447.64 190.61 L 447.93 187.04 L 448.49 183.77 L 449.43 180.61 L 450.75 178.01 L 452.42 175.87 L 454.75 173.83 L 457.09 172.21 L 459.47 171.00 L 461.89 170.15 L 465.27 169.51 L 468.63 169.43 L 472.00 169.91 L 475.28 170.90 L 478.44 172.36 L 481.50 174.31 L 484.29 176.65 L 486.82 179.37 L 489.11 182.50" fill="none" group-id="1,6,20" id="路径_12" node-id="40" stroke="#c7c7c7" stroke-linecap="round" stroke-width="6" target-height="58.28093" target-width="41.473846" target-x="447.63516" target-y="169.43007"></path><path d="M 523.09 233.72 L 522.17 230.69 L 520.11 222.88 L 519.01 217.88 L 517.97 212.18 L 517.19 206.34 L 516.79 200.51 L 516.80 196.62 L 517.09 193.06 L 517.64 189.78 L 518.59 186.63 L 519.91 184.03 L 521.57 181.89 L 523.90 179.84 L 526.25 178.23 L 528.63 177.01 L 531.05 176.16 L 534.43 175.52 L 537.79 175.44 L 541.16 175.93 L 544.44 176.91 L 547.59 178.37 L 550.65 180.33 L 553.45 182.66 L 555.98 185.38 L 558.27 188.52" fill="none" group-id="1,6,21" id="路径_13" node-id="41" stroke="#c7c7c7" stroke-linecap="round" stroke-width="6" target-height="58.28093" target-width="41.473816" target-x="516.79315" target-y="175.44307"></path><path d="M 595.26 239.74 L 594.34 236.71 L 592.28 228.89 L 591.17 223.90 L 590.13 218.20 L 589.36 212.36 L 588.96 206.53 L 588.96 202.64 L 589.25 199.07 L 589.81 195.79 L 590.76 192.64 L 592.07 190.04 L 593.74 187.90 L 596.07 185.85 L 598.42 184.24 L 600.79 183.03 L 603.21 182.18 L 606.60 181.54 L 609.95 181.46 L 613.33 181.94 L 616.61 182.93 L 619.76 184.39 L 622.82 186.34 L 625.61 188.67 L 628.15 191.39 L 630.43 194.53" fill="none" group-id="1,6,22" id="路径_14" node-id="42" stroke="#c7c7c7" stroke-linecap="round" stroke-width="6" target-height="58.28093" target-width="41.473877" target-x="588.96014" target-y="181.45908"></path><path d="M 664.42 245.75 L 663.50 242.72 L 661.44 234.91 L 660.33 229.91 L 659.29 224.21 L 658.52 218.37 L 658.12 212.54 L 658.12 208.65 L 658.41 205.09 L 658.97 201.81 L 659.92 198.66 L 661.23 196.05 L 662.90 193.92 L 665.23 191.87 L 667.58 190.26 L 669.95 189.04 L 672.37 188.19 L 675.76 187.55 L 679.11 187.47 L 682.49 187.96 L 685.76 188.94 L 688.92 190.40 L 691.98 192.36 L 694.77 194.69 L 697.31 197.41 L 699.59 200.55" fill="none" group-id="1,6,23" id="路径_15" node-id="43" stroke="#c7c7c7" stroke-linecap="round" stroke-width="6" target-height="58.28093" target-width="41.473877" target-x="658.11914" target-y="187.47208"></path><path d="M 438.81 275.73 L 572.22 292.11 L 571.29 312.83 L 437.87 296.45 Z" fill="url(#linear-gradient-6)" fill-rule="nonzero" group-id="1,6,24" id="路径_16" node-id="44" stroke="none" target-height="37.105133" target-width="134.34766" target-x="437.87445" target-y="275.727"></path><path d="M 438.81 353.91 L 686.52 384.32 L 686.96 405.22 L 439.25 374.80 Z" fill="url(#linear-gradient-6)" fill-rule="nonzero" group-id="1,6,25" id="路径_17" node-id="45" stroke="none" target-height="51.308044" target-width="248.15582" target-x="438.807" target-y="353.90698"></path><path d="M 438.81 435.09 L 686.52 465.51 L 686.96 486.40 L 439.25 455.99 Z" fill="url(#linear-gradient-6)" fill-rule="nonzero" group-id="1,6,26" id="路径_18" node-id="46" stroke="none" target-height="51.308044" target-width="248.15582" target-x="438.807" target-y="435.094"></path><path d="M 438.81 516.28 L 686.52 546.70 L 686.96 567.59 L 439.25 537.17 Z" fill="url(#linear-gradient-6)" fill-rule="nonzero" group-id="1,6,27" id="路径_19" node-id="47" stroke="none" target-height="51.308044" target-width="248.15582" target-x="438.807" target-y="516.281"></path><path d="M 358.17 630.96 L 470.38 622.86 L 468.96 637.39 L 383.84 726.60 L 267.70 717.62 L 267.97 705.87 Z" fill="#cfcfcf" fill-rule="nonzero" group-id="1,7,28" id="路径_20" node-id="49" stroke="none" target-height="103.73999" target-width="202.685" target-x="267.699" target-y="622.856"></path><path d="M 364.57 621.80 L 470.35 622.74 L 382.16 714.57 L 267.79 706.01 Z" fill="#e2e2e2" fill-rule="nonzero" group-id="1,7,29" id="路径_21" node-id="50" stroke="none" target-height="92.775024" target-width="202.56201" target-x="267.786" target-y="621.796"></path><path d="M 335.70 675.47 L 334.94 673.32 L 334.56 671.09 L 334.57 668.75 L 334.98 666.26 L 336.03 663.08 L 337.68 659.79 L 340.02 656.38 L 339.29 649.89 L 338.23 643.35 L 336.42 635.47 L 334.15 627.75 L 331.44 620.18 L 328.26 612.75 L 350.66 602.30 L 355.13 609.20 L 359.94 615.81 L 365.10 622.16 L 370.61 628.25 L 375.31 632.86 L 380.15 637.25 L 384.48 637.57 L 388.23 638.37 L 391.51 639.60 L 393.79 640.90 L 395.67 642.43 L 397.21 644.20 L 398.41 646.22 L 399.29 648.86 L 399.59 651.62 L 399.31 654.59 L 398.52 657.49 L 397.21 660.49 L 395.33 663.61 L 393.11 666.51 L 390.42 669.38 L 387.21 672.23 L 383.78 674.79 L 379.95 677.17 L 375.69 679.37 L 371.27 681.22 L 366.99 682.62 L 362.82 683.61 L 358.58 684.23 L 354.65 684.45 L 351.00 684.29 L 347.40 683.72 L 344.26 682.79 L 341.53 681.53 L 339.07 679.85 L 337.15 677.84 L 335.70 675.47 Z" fill="#d1d1d1" fill-rule="nonzero" group-id="1,7,30" id="联合_4" node-id="51" stroke="none" target-height="82.14929" target-width="71.329956" target-x="328.26263" target-y="602.29913"></path><path d="M 363.97 560.64 L 365.60 564.70 L 366.79 568.74 L 367.55 572.79 L 367.89 576.86 L 367.83 580.97 L 367.39 584.98 L 366.57 588.91 L 365.37 592.77 L 363.81 596.51 L 361.91 600.04 L 359.67 603.39 L 357.07 606.58 L 354.19 609.48 L 351.01 612.10 L 347.50 614.43 L 343.65 616.48 L 339.59 618.12 L 335.55 619.30 L 331.50 620.06 L 327.43 620.40 L 323.32 620.35 L 319.31 619.91 L 315.38 619.09 L 311.52 617.89 L 307.78 616.32 L 304.25 614.43 L 300.90 612.19 L 297.71 609.59 L 294.81 606.71 L 292.19 603.52 L 289.86 600.02 L 287.81 596.16 L 286.17 592.11 L 284.99 588.07 L 284.23 584.02 L 283.89 579.94 L 283.94 575.83 L 284.38 571.82 L 285.20 567.89 L 286.40 564.03 L 287.96 560.30 L 289.86 556.76 L 292.10 553.41 L 294.70 550.22 L 297.58 547.32 L 300.77 544.71 L 304.27 542.38 L 308.13 540.32 L 312.18 538.69 L 316.22 537.50 L 320.27 536.74 L 324.35 536.40 L 328.46 536.46 L 332.47 536.90 L 336.40 537.72 L 340.26 538.92 L 343.99 540.48 L 347.52 542.38 L 350.88 544.62 L 354.06 547.22 L 356.97 550.10 L 359.58 553.28 L 361.91 556.79 L 363.97 560.64 Z" fill="url(#linear-gradient-10)" fill-rule="nonzero" group-id="1,7,31" id="椭圆_22" node-id="52" stroke="none" target-height="84.00336" target-width="84.00336" target-x="283.88547" target-y="536.40045"></path><path d="M 339.12 554.21 L 339.75 555.97 L 340.05 557.72 L 340.03 559.47 L 339.72 561.20 L 339.13 562.81 L 338.26 564.34 L 337.14 565.69 L 335.79 566.83 L 334.18 567.78 L 332.41 568.41 L 330.67 568.71 L 328.92 568.69 L 327.19 568.38 L 325.57 567.79 L 324.05 566.92 L 322.69 565.81 L 321.55 564.46 L 320.60 562.84 L 319.97 561.08 L 319.67 559.33 L 319.69 557.58 L 320.00 555.85 L 320.59 554.24 L 321.46 552.71 L 322.58 551.36 L 323.93 550.21 L 325.54 549.27 L 327.31 548.64 L 329.05 548.34 L 330.81 548.35 L 332.53 548.67 L 334.15 549.26 L 335.67 550.13 L 337.03 551.24 L 338.17 552.59 L 339.12 554.21 Z" fill="#ffffff" fill-rule="nonzero" group-id="1,7,32" id="椭圆_23" node-id="53" stroke="none" target-height="20.37323" target-width="20.3732" target-x="319.67374" target-y="548.3373"></path></g></svg>