<?xml version="1.0" standalone="no"?><!DOCTYPE svg PUBLIC "-//W3C//DTD SVG 1.1//EN" "http://www.w3.org/Graphics/SVG/1.1/DTD/svg11.dtd"><svg t="1709447926569" class="icon" viewBox="0 0 1024 1024" version="1.1" xmlns="http://www.w3.org/2000/svg" p-id="7120" xmlns:xlink="http://www.w3.org/1999/xlink" width="48" height="48"><path d="M627.645771 616.947264l-62.153234 4.585074c-1.018905-8.660697-1.528358-18.340299-1.528358-27.000995 0-8.151244 3.566169-16.302488 9.170149-22.41592 0.509453-0.509453 60.624876-61.134328 73.361194-139.080597 2.547264-15.283582 15.283582-25.98209 30.567165-25.98209 7.641791-10.698507 11.717413-23.434826 12.736318-36.680597 1.528358-16.81194-1.528358-31.58607-8.660697-37.699502-7.132338-6.622886-11.20796-15.793035-11.20796-25.472637 0-3.566169 0.509453-8.660697 1.018906-15.283582 4.075622-38.208955 14.264677-128.891542-35.152239-183.402985-28.0199-31.076617-72.851741-46.869652-133.476617-46.869652S396.863682 77.946269 369.353234 109.532338c-48.907463 54.511443-39.227861 144.684577-35.152239 183.402985 0.509453 6.622886 1.018905 11.717413 1.018905 15.283582 0.509453 10.189055-3.566169 18.849751-11.20796 25.472637-7.132338 6.113433-10.698507 21.397015-8.660696 37.699503 2.547264 21.906468 11.717413 35.152239 15.283582 37.19005 14.774129 0 27.000995 11.20796 28.0199 25.982089 12.736318 78.965174 72.851741 138.571144 73.361194 139.080597 6.113433 6.113433 9.170149 14.264677 9.17015 22.41592 0 27.000995-5.094527 89.663682-49.416916 96.79602-68.266667 10.698507-277.142289 108.00398-316.879602 204.8H537.472637l34.133333 61.134329H38.718408c-16.81194 0-31.076617-14.264677-31.076617-31.076617 0-155.892537 282.236816-277.142289 367.824876-295.99204 3.056716-8.660697 4.585075-17.830846 4.585074-26.491542-18.849751-21.906468-60.624876-75.399005-76.927363-144.175125-16.81194-8.660697-31.076617-26.491542-39.737313-50.435821-12.736318-34.133333-13.755224-81.002985 10.189054-112.589054-4.585075-43.303483-16.302488-155.892537 50.435821-230.272637C363.239801 22.925373 423.864677 0 503.339303 0s139.080597 22.925373 179.836816 67.757214c66.738308 74.3801 55.020896 186.969154 50.435821 230.272637 23.434826 31.58607 22.925373 78.965174 10.189055 113.60796-8.660697 23.944279-22.925373 41.775124-39.737313 50.435821-16.302488 68.776119-58.077612 122.268657-76.927364 144.175124 0.509453 4.075622 0.509453 8.151244 1.018906 11.717413" p-id="7121" fill="#4494e4"></path><path d="M949.110448 591.98408h-389.731344c-18.340299 0-34.642786 7.132338-46.869651 19.868656-12.226866 12.226866-18.340299 29.038806-18.340299 45.850747V896.636816c0 35.661692 29.548259 65.20995 65.20995 65.20995h171.17612v10.189055h-99.852736c-12.736318 0-23.434826 10.698507-23.434826 23.434826 0 12.736318 10.698507 23.434826 23.434826 23.434826h246.575124c12.736318 0 23.434826-10.698507 23.434826-23.434826 0-12.736318-10.698507-23.434826-23.434826-23.434826h-99.852736v-10.189055h171.685572c35.661692 0 65.20995-29.548259 65.20995-65.20995v-239.442786c0-35.661692-29.548259-65.20995-65.20995-65.20995z m18.340298 304.143283c0 10.189055-8.151244 18.340299-18.340298 18.340299h-389.731344c-10.189055 0-18.340299-8.151244-18.340298-18.340299V657.19403c0-4.585075 1.528358-8.660697 4.585075-12.226866 3.566169-3.566169 8.151244-5.094527 13.755223-5.094527h389.731344c10.189055 0 18.340299 8.151244 18.340298 18.340298v237.914428z" p-id="7122" fill="#4494e4"></path><path d="M732.593035 861.484577c-55.530348 0-100.871642-45.341294-100.871642-100.871642s45.341294-100.871642 100.871642-100.871641 100.871642 45.341294 100.871642 100.871641c0.509453 55.530348-44.831841 100.871642-100.871642 100.871642z m0-171.685572c-38.718408 0-70.304478 31.58607-70.304478 70.304478s31.58607 70.304478 70.304478 70.304477 70.304478-31.58607 70.304477-70.304477-31.076617-70.304478-70.304477-70.304478z" p-id="7123" fill="#4494e4"></path><path d="M856.899502 890.01393c-4.075622 0-7.641791-1.528358-10.698507-4.585074L787.104478 827.351244c-6.113433-6.113433-6.113433-15.793035 0-21.397015 6.113433-6.113433 15.793035-6.113433 21.397015 0l58.587064 58.587065c6.113433 6.113433 6.113433 15.793035 0 21.397014-2.547264 3.056716-6.622886 4.075622-10.189055 4.075622zM688.7801 770.292537c-5.60398 0-10.189055-4.585075-10.189055-10.189054 0-30.057711 24.453731-54.511443 54.511443-54.511443 5.60398 0 10.189055 4.585075 10.189054 10.189055s-4.585075 10.189055-10.189054 10.189054c-18.849751 0-34.133333 15.283582-34.133334 34.133334 0 5.60398-4.585075 10.189055-10.189054 10.189054z" p-id="7124" fill="#4494e4"></path></svg>