<?xml version="1.0" standalone="no"?><!DOCTYPE svg PUBLIC "-//W3C//DTD SVG 1.1//EN" "http://www.w3.org/Graphics/SVG/1.1/DTD/svg11.dtd"><svg t="1709366915444" class="icon" viewBox="0 0 1024 1024" version="1.1" xmlns="http://www.w3.org/2000/svg" p-id="8282" xmlns:xlink="http://www.w3.org/1999/xlink" width="48" height="48"><path d="M512 26.54814777C245.0014811 26.54814777 26.54814777 245.0014811 26.54814777 512s218.45333333 485.45185223 485.45185223 485.45185223 485.45185223-218.45333333 485.45185223-485.45185223S778.9985189 26.54814777 512 26.54814777z m0 873.81333333c-213.59881443 0-388.3614811-174.76266667-388.3614811-388.3614811s174.76266667-388.3614811 388.3614811-388.3614811 388.3614811 174.76266667 388.3614811 388.3614811-174.76266667 388.3614811-388.3614811 388.3614811z" fill="#4494e4" p-id="8283"></path><path d="M269.27407445 507.1454811l237.87140665 237.87140779 237.87140779-237.87140779L507.1454811 269.27407445 269.27407445 507.1454811z m237.87140665 106.79940779L405.20059221 512l101.94488889-101.94488889L609.09036999 512l-101.94488889 101.94488889z" fill="#4494e4" p-id="8284"></path></svg>