<?xml version="1.0" standalone="no"?><!DOCTYPE svg PUBLIC "-//W3C//DTD SVG 1.1//EN" "http://www.w3.org/Graphics/SVG/1.1/DTD/svg11.dtd"><svg height="1024" node-id="1" sillyvg="true" template-height="1024" template-width="1024" version="1.1" viewBox="0 0 1024 1024" width="1024" xmlns="http://www.w3.org/2000/svg" xmlns:xlink="http://www.w3.org/1999/xlink"><defs node-id="102"><linearGradient gradientUnits="objectBoundingBox" id="linear-gradient" node-id="3" spreadMethod="pad" x1="0.5" x2="0.5" y1="0" y2="1"><stop offset="0" stop-color="#e1e1e1"></stop><stop offset="1" stop-color="#ffffff" stop-opacity="0"></stop></linearGradient><linearGradient gradientUnits="objectBoundingBox" id="linear-gradient-2" node-id="6" spreadMethod="pad" x1="0.5" x2="0.5" y1="0" y2="1"><stop offset="0" stop-color="#e5e5e5"></stop><stop offset="1" stop-color="#ffffff"></stop></linearGradient><linearGradient gradientUnits="objectBoundingBox" id="linear-gradient-3" node-id="9" spreadMethod="pad" x1="0.2309679" x2="0.7538952" y1="0.084988184" y2="0.8928759"><stop offset="0" stop-color="#bfbfbf"></stop><stop offset="1" stop-color="#cfcfcf"></stop></linearGradient><linearGradient gradientUnits="objectBoundingBox" id="linear-gradient-5" node-id="26" spreadMethod="pad" x1="0.57791966" x2="0.3639494" y1="0.053992495" y2="0.927871"><stop offset="0" stop-color="#ebebeb"></stop><stop offset="1" stop-color="#cbcbcb"></stop></linearGradient><linearGradient gradientUnits="objectBoundingBox" id="linear-gradient-6" node-id="36" spreadMethod="pad" x1="0.57791966" x2="0.3639494" y1="0.053992495" y2="0.927871"><stop offset="0" stop-color="#bbbaba"></stop><stop offset="1" stop-color="#9b9b9b"></stop></linearGradient><linearGradient gradientUnits="objectBoundingBox" id="linear-gradient-8" node-id="53" spreadMethod="pad" x1="0.5" x2="0.5" y1="0" y2="1"><stop offset="0" stop-color="#e2e2e2"></stop><stop offset="1" stop-color="#bcbcbc"></stop></linearGradient><filter height="1.2" id="椭圆_2" node-id="12" width="1.2" x="-0.1" y="-0.1"><feOffset color-interpolation-filters="linearRGB" dx="0" dy="0" in="SourceGraphic" result="result1"></feOffset><feGaussianBlur color-interpolation-filters="linearRGB" in="result1" result="blur" stdDeviation="6 6"></feGaussianBlur><feFlood color-interpolation-filters="linearRGB" flood-color="#ffffff" flood-opacity="0.561" result="color"></feFlood><feComposite color-interpolation-filters="linearRGB" in="SourceGraphic" in2="blur" operator="out" result="result4"></feComposite><feComposite color-interpolation-filters="linearRGB" in="color" in2="result4" operator="in" result="result5"></feComposite><feComposite color-interpolation-filters="linearRGB" in="result5" in2="SourceGraphic" operator="in" result="result6"></feComposite></filter><filter height="1.2" id="椭圆_3" node-id="19" width="1.2" x="-0.1" y="-0.1"><feOffset color-interpolation-filters="linearRGB" dx="0" dy="0" in="SourceGraphic" result="result1"></feOffset><feGaussianBlur color-interpolation-filters="linearRGB" in="result1" result="blur-2" stdDeviation="6 6"></feGaussianBlur><feFlood color-interpolation-filters="linearRGB" flood-color="#ffffff" flood-opacity="0.561" result="color-2"></feFlood><feComposite color-interpolation-filters="linearRGB" in="SourceGraphic" in2="blur-2" operator="out" result="result4"></feComposite><feComposite color-interpolation-filters="linearRGB" in="color-2" in2="result4" operator="in" result="result5"></feComposite><feComposite color-interpolation-filters="linearRGB" in="result5" in2="SourceGraphic" operator="in" result="result6"></feComposite></filter><filter height="1.2" id="椭圆_5" node-id="29" width="1.2" x="-0.1" y="-0.1"><feOffset color-interpolation-filters="linearRGB" dx="0" dy="0" in="SourceGraphic" result="result1"></feOffset><feGaussianBlur color-interpolation-filters="linearRGB" in="result1" result="blur-3" stdDeviation="6 6"></feGaussianBlur><feFlood color-interpolation-filters="linearRGB" flood-color="#ffffff" flood-opacity="0.561" result="color-3"></feFlood><feComposite color-interpolation-filters="linearRGB" in="SourceGraphic" in2="blur-3" operator="out" result="result4"></feComposite><feComposite color-interpolation-filters="linearRGB" in="color-3" in2="result4" operator="in" result="result5"></feComposite><feComposite color-interpolation-filters="linearRGB" in="result5" in2="SourceGraphic" operator="in" result="result6"></feComposite></filter><filter height="1.2" id="椭圆_6" node-id="39" width="1.2" x="-0.1" y="-0.1"><feOffset color-interpolation-filters="linearRGB" dx="0" dy="0" in="SourceGraphic" result="result1"></feOffset><feGaussianBlur color-interpolation-filters="linearRGB" in="result1" result="blur-4" stdDeviation="6 6"></feGaussianBlur><feFlood color-interpolation-filters="linearRGB" flood-color="#545454" flood-opacity="0.561" result="color-4"></feFlood><feComposite color-interpolation-filters="linearRGB" in="SourceGraphic" in2="blur-4" operator="out" result="result4"></feComposite><feComposite color-interpolation-filters="linearRGB" in="color-4" in2="result4" operator="in" result="result5"></feComposite><feComposite color-interpolation-filters="linearRGB" in="result5" in2="SourceGraphic" operator="in" result="result6"></feComposite></filter><filter height="1.2" id="椭圆_7" node-id="46" width="1.2" x="-0.1" y="-0.1"><feOffset color-interpolation-filters="linearRGB" dx="0" dy="0" in="SourceGraphic" result="result1"></feOffset><feGaussianBlur color-interpolation-filters="linearRGB" in="result1" result="blur-5" stdDeviation="6 6"></feGaussianBlur><feFlood color-interpolation-filters="linearRGB" flood-color="#545454" flood-opacity="0.561" result="color-5"></feFlood><feComposite color-interpolation-filters="linearRGB" in="SourceGraphic" in2="blur-5" operator="out" result="result4"></feComposite><feComposite color-interpolation-filters="linearRGB" in="color-5" in2="result4" operator="in" result="result5"></feComposite><feComposite color-interpolation-filters="linearRGB" in="result5" in2="SourceGraphic" operator="in" result="result6"></feComposite></filter><clipPath id="clip-网络不稳定" node-id="56"><path d="M 0.00 0.00 L 1024.00 0.00 L 1024.00 1024.00 L 0.00 1024.00 Z" fill="#000000" fill-rule="nonzero" node-id="211" stroke="none" target-height="1024" target-width="1024" target-x="0" target-y="0"></path></clipPath></defs><g clip-path="url(#clip-网络不稳定)" id="网络不稳定" node-id="58"><path d="M 0.00 0.00 L 1024.00 0.00 L 1024.00 1024.00 L 0.00 1024.00 Z" fill="#ffffff" fill-rule="nonzero" node-id="216" stroke="none" target-height="1024" target-width="1024" target-x="0" target-y="0"></path><path d="M 1024.00 798.08 L 1023.72 805.50 L 1022.89 812.89 L 1021.53 820.25 L 1019.62 827.60 L 1017.14 834.97 L 1014.07 842.36 L 1010.64 849.36 L 1006.67 856.35 L 1002.16 863.36 L 997.07 870.39 L 991.37 877.45 L 985.03 884.54 L 977.31 892.34 L 968.80 900.13 L 959.44 907.90 L 949.18 915.67 L 937.98 923.42 L 926.90 930.46 L 915.00 937.43 L 902.26 944.32 L 888.62 951.12 L 874.04 957.83 L 859.61 963.95 L 844.56 969.86 L 828.88 975.53 L 812.55 980.98 L 796.26 985.98 L 779.45 990.73 L 762.11 995.21 L 744.23 999.43 L 726.40 1003.24 L 708.17 1006.76 L 689.52 1009.99 L 670.45 1012.91 L 651.43 1015.46 L 632.11 1017.70 L 612.50 1019.61 L 592.58 1021.19 L 566.04 1022.74 L 539.18 1023.68 L 512.00 1024.00 L 484.81 1023.68 L 457.96 1022.74 L 431.42 1021.19 L 411.50 1019.61 L 391.89 1017.70 L 372.57 1015.46 L 353.55 1012.91 L 334.48 1009.99 L 315.83 1006.76 L 297.60 1003.24 L 279.77 999.43 L 261.89 995.21 L 244.55 990.73 L 227.74 985.98 L 211.45 980.98 L 195.12 975.53 L 179.44 969.86 L 164.39 963.95 L 149.96 957.83 L 135.38 951.12 L 121.74 944.32 L 109.00 937.43 L 97.10 930.46 L 86.02 923.42 L 74.82 915.67 L 64.56 907.90 L 55.20 900.13 L 46.69 892.34 L 38.97 884.54 L 32.63 877.45 L 26.93 870.39 L 21.84 863.36 L 17.33 856.35 L 13.36 849.36 L 9.93 842.36 L 6.86 834.97 L 4.38 827.60 L 2.47 820.25 L 1.11 812.89 L 0.28 805.50 L 0.00 798.08 L 0.28 790.65 L 1.11 783.27 L 2.47 775.91 L 4.38 768.56 L 6.86 761.19 L 9.93 753.80 L 13.36 746.80 L 17.33 739.80 L 21.84 732.79 L 26.93 725.77 L 32.63 718.71 L 38.97 711.62 L 46.69 703.82 L 55.20 696.03 L 64.56 688.26 L 74.82 680.49 L 86.02 672.74 L 97.10 665.69 L 109.00 658.72 L 121.74 651.84 L 135.38 645.04 L 149.96 638.33 L 164.39 632.21 L 179.44 626.30 L 195.12 620.62 L 211.45 615.18 L 227.74 610.17 L 244.55 605.43 L 261.89 600.95 L 279.77 596.73 L 297.60 592.92 L 315.83 589.40 L 334.48 586.17 L 353.55 583.25 L 372.57 580.69 L 391.89 578.46 L 411.50 576.55 L 431.42 574.97 L 457.96 573.42 L 484.81 572.48 L 512.00 572.16 L 539.18 572.48 L 566.04 573.42 L 592.58 574.97 L 612.50 576.55 L 632.11 578.46 L 651.43 580.69 L 670.45 583.25 L 689.52 586.17 L 708.17 589.40 L 726.40 592.92 L 744.23 596.73 L 762.11 600.95 L 779.45 605.43 L 796.26 610.17 L 812.55 615.18 L 828.88 620.62 L 844.56 626.30 L 859.61 632.21 L 874.04 638.33 L 888.62 645.04 L 902.26 651.84 L 915.00 658.72 L 926.90 665.69 L 937.98 672.74 L 949.18 680.49 L 959.44 688.26 L 968.80 696.03 L 977.31 703.82 L 985.03 711.62 L 991.37 718.71 L 997.07 725.77 L 1002.16 732.79 L 1006.67 739.80 L 1010.64 746.80 L 1014.07 753.80 L 1017.14 761.19 L 1019.62 768.56 L 1021.53 775.91 L 1022.89 783.27 L 1023.72 790.65 L 1024.00 798.08 Z" fill="url(#linear-gradient)" fill-rule="nonzero" group-id="1,2" id="椭圆_1" node-id="61" stroke="none" target-height="451.844" target-width="1024" target-x="0" target-y="572.157"></path><path d="M 524.32 633.29 L 600.94 390.50 L 600.94 689.60 Z" fill="#cfcfcf" fill-rule="nonzero" group-id="1,3,7" id="路径_1" node-id="63" stroke="none" target-height="299.09402" target-width="76.61798" target-x="524.322" target-y="390.504"></path><path d="M 669.12 689.60 L 600.95 689.60 L 600.95 390.51 L 639.13 394.15 Z" fill="url(#linear-gradient-2)" fill-rule="nonzero" group-id="1,3,8" id="路径_2" node-id="64" stroke="none" target-height="299.09094" target-width="68.177" target-x="600.946" target-y="390.51105"></path><path d="M 650.50 460.70 L 650.26 466.16 L 649.62 471.43 L 648.58 476.53 L 647.14 481.48 L 645.31 486.32 L 643.14 490.94 L 640.65 495.33 L 637.81 499.53 L 634.65 503.50 L 631.24 507.19 L 627.55 510.61 L 623.57 513.76 L 619.38 516.60 L 614.98 519.10 L 610.37 521.26 L 605.52 523.10 L 600.58 524.54 L 595.47 525.58 L 590.20 526.22 L 584.74 526.45 L 579.28 526.22 L 574.01 525.58 L 568.91 524.54 L 563.96 523.10 L 559.12 521.26 L 554.50 519.10 L 550.11 516.60 L 545.91 513.76 L 541.94 510.61 L 538.25 507.19 L 534.83 503.50 L 531.68 499.53 L 528.84 495.33 L 526.34 490.94 L 524.17 486.32 L 522.34 481.48 L 520.90 476.53 L 519.86 471.43 L 519.22 466.16 L 518.99 460.70 L 519.22 455.24 L 519.86 449.97 L 520.90 444.86 L 522.34 439.91 L 524.17 435.07 L 526.34 430.46 L 528.84 426.06 L 531.68 421.86 L 534.83 417.89 L 538.25 414.20 L 541.94 410.78 L 545.91 407.63 L 550.11 404.79 L 554.50 402.29 L 559.12 400.13 L 563.96 398.30 L 568.91 396.86 L 574.01 395.82 L 579.28 395.18 L 584.74 394.94 L 590.20 395.18 L 595.47 395.82 L 600.58 396.86 L 605.52 398.30 L 610.37 400.13 L 614.98 402.29 L 619.38 404.79 L 623.57 407.63 L 627.55 410.78 L 631.24 414.20 L 634.65 417.89 L 637.81 421.86 L 640.65 426.06 L 643.14 430.46 L 645.31 435.07 L 647.14 439.91 L 648.58 444.86 L 649.62 449.97 L 650.26 455.24 L 650.50 460.70 Z" fill="url(#linear-gradient-3)" fill-rule="nonzero" group-id="1,3,9,24" id="椭圆_2-2" node-id="66" stroke="none" target-height="131.50601" target-width="131.50598" target-x="518.989" target-y="394.944"></path><path d="M 650.50 460.69 L 650.26 466.15 L 649.62 471.43 L 648.58 476.53 L 647.14 481.48 L 645.31 486.32 L 643.14 490.93 L 640.65 495.33 L 637.81 499.53 L 634.65 503.50 L 631.24 507.19 L 627.55 510.61 L 623.57 513.76 L 619.38 516.60 L 614.98 519.10 L 610.37 521.26 L 605.52 523.09 L 600.58 524.53 L 595.47 525.58 L 590.20 526.22 L 584.74 526.45 L 579.28 526.22 L 574.01 525.58 L 568.91 524.53 L 563.96 523.09 L 559.12 521.26 L 554.50 519.10 L 550.11 516.60 L 545.91 513.76 L 541.94 510.61 L 538.25 507.19 L 534.83 503.50 L 531.68 499.53 L 528.84 495.33 L 526.34 490.93 L 524.17 486.32 L 522.34 481.48 L 520.90 476.53 L 519.86 471.43 L 519.22 466.15 L 518.99 460.69 L 519.22 455.23 L 519.86 449.96 L 520.90 444.86 L 522.34 439.91 L 524.17 435.07 L 526.34 430.46 L 528.84 426.06 L 531.68 421.86 L 534.83 417.89 L 538.25 414.20 L 541.94 410.78 L 545.91 407.63 L 550.11 404.79 L 554.50 402.29 L 559.12 400.13 L 563.96 398.29 L 568.91 396.85 L 574.01 395.81 L 579.28 395.17 L 584.74 394.94 L 590.20 395.17 L 595.47 395.81 L 600.58 396.85 L 605.52 398.29 L 610.37 400.13 L 614.98 402.29 L 619.38 404.79 L 623.57 407.63 L 627.55 410.78 L 631.24 414.20 L 634.65 417.89 L 637.81 421.86 L 640.65 426.06 L 643.14 430.46 L 645.31 435.07 L 647.14 439.91 L 648.58 444.86 L 649.62 449.96 L 650.26 455.23 L 650.50 460.69 Z" fill="#ffffff" fill-rule="nonzero" filter="url(#椭圆_2)" group-id="1,3,9,25,35" id="椭圆_2-3" node-id="68" stroke="none" target-height="131.50601" target-width="131.50598" target-x="518.989" target-y="394.941"></path><path d="M 616.63 479.69 L 610.91 487.60 L 604.87 494.96 L 598.51 501.80 L 591.81 508.13 L 584.70 514.06 L 577.38 519.45 L 569.83 524.31 L 562.06 528.65 L 554.00 532.52 L 545.83 535.83 L 537.55 538.60 L 529.14 540.84 L 520.59 542.55 L 512.03 543.69 L 503.46 544.27 L 494.85 544.29 L 486.27 543.74 L 477.77 542.61 L 469.35 540.89 L 460.98 538.58 L 452.82 535.70 L 444.84 532.20 L 437.00 528.07 L 429.31 523.29 L 421.99 517.95 L 415.23 512.24 L 408.99 506.14 L 403.26 499.66 L 397.98 492.77 L 393.23 485.61 L 389.00 478.16 L 385.27 470.40 L 382.06 462.41 L 379.39 454.25 L 377.24 445.89 L 375.61 437.32 L 374.54 428.68 L 374.00 419.96 L 374.02 411.15 L 374.58 402.23 L 375.69 393.39 L 377.37 384.58 L 379.62 375.77 L 382.45 366.95 L 385.81 358.37 L 389.76 349.91 L 394.32 341.55 L 399.51 333.29 L 405.23 325.37 L 411.27 318.01 L 417.63 311.18 L 424.33 304.85 L 431.44 298.92 L 438.76 293.53 L 446.31 288.67 L 454.09 284.33 L 462.15 280.46 L 470.31 277.14 L 478.59 274.37 L 487.00 272.13 L 495.56 270.43 L 504.11 269.29 L 512.68 268.70 L 521.29 268.68 L 529.88 269.23 L 538.37 270.36 L 546.79 272.08 L 555.16 274.39 L 563.32 277.28 L 571.31 280.78 L 579.14 284.90 L 586.83 289.68 L 594.15 295.02 L 600.91 300.74 L 607.15 306.83 L 612.88 313.31 L 618.16 320.20 L 622.91 327.37 L 627.14 334.82 L 630.87 342.58 L 634.08 350.56 L 636.75 358.73 L 638.90 367.08 L 640.53 375.65 L 641.61 384.29 L 642.14 393.01 L 642.13 401.82 L 641.56 410.74 L 640.45 419.58 L 638.77 428.40 L 636.53 437.21 L 633.69 446.02 L 630.33 454.60 L 626.38 463.07 L 621.82 471.42 L 616.63 479.69 Z" fill="url(#linear-gradient-3)" fill-rule="nonzero" group-id="1,3,10,26" id="椭圆_3-2" node-id="70" stroke="none" target-height="275.61038" target-width="268.13562" target-x="374.0033" target-y="268.6821"></path><path d="M 616.75 480.09 L 611.02 488.01 L 604.97 495.38 L 598.59 502.23 L 591.89 508.56 L 584.76 514.50 L 577.43 519.90 L 569.87 524.76 L 562.08 529.11 L 554.01 532.98 L 545.84 536.29 L 537.54 539.07 L 529.12 541.31 L 520.55 543.02 L 511.98 544.15 L 503.40 544.73 L 494.78 544.75 L 486.18 544.20 L 477.67 543.07 L 469.24 541.34 L 460.86 539.03 L 452.70 536.13 L 444.70 532.63 L 436.86 528.49 L 429.15 523.71 L 421.83 518.36 L 415.06 512.63 L 408.81 506.53 L 403.08 500.04 L 397.79 493.13 L 393.04 485.96 L 388.80 478.50 L 385.07 470.73 L 381.86 462.73 L 379.18 454.55 L 377.03 446.18 L 375.41 437.60 L 374.33 428.95 L 373.80 420.22 L 373.81 411.40 L 374.38 402.47 L 375.50 393.61 L 377.18 384.79 L 379.43 375.97 L 382.27 367.14 L 385.64 358.55 L 389.60 350.07 L 394.17 341.70 L 399.37 333.43 L 405.09 325.51 L 411.14 318.14 L 417.52 311.30 L 424.22 304.96 L 431.35 299.02 L 438.68 293.63 L 446.24 288.76 L 454.03 284.41 L 462.10 280.54 L 470.28 277.23 L 478.57 274.45 L 486.99 272.21 L 495.56 270.51 L 504.13 269.37 L 512.71 268.79 L 521.33 268.77 L 529.93 269.32 L 538.44 270.46 L 546.87 272.18 L 555.25 274.50 L 563.41 277.39 L 571.41 280.89 L 579.25 285.03 L 586.96 289.81 L 594.28 295.17 L 601.05 300.89 L 607.30 306.99 L 613.03 313.49 L 618.32 320.39 L 623.07 327.56 L 627.31 335.03 L 631.04 342.79 L 634.25 350.79 L 636.93 358.97 L 639.08 367.34 L 640.70 375.92 L 641.78 384.57 L 642.31 393.30 L 642.30 402.12 L 641.73 411.06 L 640.61 419.91 L 638.93 428.74 L 636.68 437.56 L 633.84 446.39 L 630.47 454.98 L 626.51 463.45 L 621.94 471.82 L 616.75 480.09 Z" fill="#ffffff" fill-rule="nonzero" filter="url(#椭圆_3)" group-id="1,3,10,27,36" id="椭圆_3-3" node-id="72" stroke="none" target-height="275.98587" target-width="268.5152" target-x="373.79755" target-y="268.76816"></path><path d="M 601.05 469.19 L 595.35 477.11 L 589.35 484.50 L 583.05 491.38 L 576.46 497.78 L 569.46 503.80 L 562.28 509.29 L 554.91 514.26 L 547.34 518.73 L 539.48 522.76 L 531.55 526.23 L 523.54 529.17 L 515.42 531.60 L 507.14 533.51 L 498.89 534.86 L 490.66 535.66 L 482.42 535.91 L 474.17 535.60 L 466.05 534.72 L 458.02 533.26 L 450.07 531.22 L 442.31 528.61 L 434.74 525.39 L 427.33 521.55 L 420.08 517.08 L 413.21 512.03 L 406.88 506.61 L 401.06 500.80 L 395.73 494.58 L 390.86 487.98 L 386.50 481.08 L 382.63 473.87 L 379.25 466.34 L 376.40 458.61 L 374.06 450.68 L 372.22 442.52 L 370.88 434.13 L 370.09 425.70 L 369.81 417.17 L 370.06 408.51 L 370.84 399.72 L 372.15 391.02 L 373.99 382.33 L 376.39 373.61 L 379.36 364.87 L 382.81 356.36 L 386.83 347.94 L 391.43 339.61 L 396.64 331.35 L 402.35 323.43 L 408.35 316.04 L 414.64 309.15 L 421.23 302.76 L 428.23 296.73 L 435.41 291.24 L 442.78 286.27 L 450.35 281.81 L 458.21 277.78 L 466.14 274.31 L 474.16 271.36 L 482.27 268.94 L 490.55 267.03 L 498.80 265.68 L 507.03 264.88 L 515.27 264.63 L 523.52 264.93 L 531.65 265.82 L 539.68 267.28 L 547.63 269.31 L 555.39 271.93 L 562.96 275.15 L 570.36 278.98 L 577.61 283.46 L 584.48 288.51 L 590.81 293.93 L 596.63 299.74 L 601.97 305.96 L 606.84 312.56 L 611.20 319.46 L 615.06 326.66 L 618.44 334.19 L 621.29 341.93 L 623.64 349.86 L 625.48 358.01 L 626.81 366.41 L 627.61 374.84 L 627.89 383.37 L 627.64 392.03 L 626.85 400.82 L 625.55 409.51 L 623.70 418.21 L 621.30 426.92 L 618.34 435.67 L 614.88 444.18 L 610.86 452.59 L 606.26 460.93 L 601.05 469.19 Z" fill="url(#linear-gradient-5)" fill-rule="nonzero" group-id="1,3,11,28" id="椭圆_5-2" node-id="74" stroke="none" target-height="271.2846" target-width="258.0765" target-x="369.80875" target-y="264.62665"></path><path d="M 601.16 469.58 L 595.44 477.51 L 589.44 484.91 L 583.13 491.80 L 576.53 498.20 L 569.52 504.24 L 562.33 509.73 L 554.95 514.71 L 547.36 519.18 L 539.49 523.21 L 531.55 526.69 L 523.52 529.63 L 515.40 532.05 L 507.10 533.96 L 498.84 535.31 L 490.60 536.11 L 482.35 536.36 L 474.09 536.05 L 465.95 535.17 L 457.91 533.70 L 449.95 531.66 L 442.18 529.04 L 434.60 525.82 L 427.19 521.97 L 419.93 517.49 L 413.05 512.43 L 406.71 507.00 L 400.88 501.18 L 395.54 494.95 L 390.67 488.34 L 386.30 481.43 L 382.43 474.21 L 379.05 466.67 L 376.20 458.93 L 373.85 450.98 L 372.01 442.82 L 370.68 434.41 L 369.89 425.97 L 369.61 417.42 L 369.86 408.76 L 370.65 399.95 L 371.96 391.25 L 373.81 382.54 L 376.21 373.81 L 379.18 365.05 L 382.65 356.53 L 386.67 348.11 L 391.29 339.77 L 396.50 331.50 L 402.22 323.56 L 408.23 316.16 L 414.53 309.27 L 421.14 302.88 L 428.15 296.84 L 435.34 291.35 L 442.72 286.37 L 450.30 281.90 L 458.17 277.87 L 466.12 274.39 L 474.14 271.45 L 482.27 269.03 L 490.56 267.11 L 498.82 265.76 L 507.07 264.96 L 515.32 264.71 L 523.58 265.02 L 531.72 265.91 L 539.76 267.37 L 547.72 269.42 L 555.48 272.03 L 563.07 275.26 L 570.48 279.10 L 577.74 283.59 L 584.61 288.64 L 590.95 294.08 L 596.78 299.90 L 602.12 306.12 L 606.99 312.74 L 611.36 319.65 L 615.23 326.86 L 618.61 334.40 L 621.46 342.15 L 623.81 350.09 L 625.65 358.26 L 626.98 366.66 L 627.78 375.10 L 628.05 383.65 L 627.80 392.32 L 627.01 401.13 L 625.71 409.83 L 623.85 418.54 L 621.45 427.26 L 618.48 436.02 L 615.02 444.54 L 610.99 452.97 L 606.38 461.31 L 601.16 469.58 Z" fill="#ffffff" fill-rule="nonzero" filter="url(#椭圆_5)" group-id="1,3,11,29,37" id="椭圆_5-3" node-id="76" stroke="none" target-height="271.6524" target-width="258.4439" target-x="369.6104" target-y="264.71198"></path><path d="M 601.05 469.19 L 595.35 477.11 L 589.35 484.50 L 583.05 491.38 L 576.46 497.78 L 569.46 503.80 L 562.28 509.29 L 554.91 514.26 L 547.34 518.73 L 539.48 522.76 L 531.55 526.23 L 523.54 529.17 L 515.42 531.60 L 507.14 533.51 L 498.89 534.86 L 490.66 535.66 L 482.42 535.91 L 474.17 535.60 L 466.05 534.72 L 458.02 533.26 L 450.07 531.22 L 442.31 528.61 L 434.74 525.39 L 427.33 521.55 L 420.08 517.08 L 413.21 512.03 L 406.88 506.61 L 401.06 500.80 L 395.73 494.58 L 390.86 487.98 L 386.50 481.08 L 382.63 473.87 L 379.25 466.34 L 376.40 458.61 L 374.06 450.68 L 372.22 442.52 L 370.88 434.13 L 370.09 425.70 L 369.81 417.17 L 370.06 408.51 L 370.84 399.72 L 372.15 391.02 L 373.99 382.33 L 376.39 373.61 L 379.36 364.87 L 382.81 356.36 L 386.83 347.94 L 391.43 339.61 L 396.64 331.35 L 402.35 323.43 L 408.35 316.04 L 414.64 309.15 L 421.23 302.76 L 428.23 296.73 L 435.41 291.24 L 442.78 286.27 L 450.35 281.81 L 458.21 277.78 L 466.14 274.31 L 474.16 271.36 L 482.27 268.94 L 490.55 267.03 L 498.80 265.68 L 507.03 264.88 L 515.27 264.63 L 523.52 264.93 L 531.65 265.82 L 539.68 267.28 L 547.63 269.31 L 555.39 271.93 L 562.96 275.15 L 570.36 278.98 L 577.61 283.46 L 584.48 288.51 L 590.81 293.93 L 596.63 299.74 L 601.97 305.96 L 606.84 312.56 L 611.20 319.46 L 615.06 326.66 L 618.44 334.19 L 621.29 341.93 L 623.64 349.86 L 625.48 358.01 L 626.81 366.41 L 627.61 374.84 L 627.89 383.37 L 627.64 392.03 L 626.85 400.82 L 625.55 409.51 L 623.70 418.21 L 621.30 426.92 L 618.34 435.67 L 614.88 444.18 L 610.86 452.59 L 606.26 460.93 L 601.05 469.19 Z" fill="none" group-id="1,3,11,30" node-id="274" stroke="none" target-height="271.2846" target-width="258.0765" target-x="369.80875" target-y="264.62665"></path><path d="M 600.64 468.91 L 594.95 476.80 L 588.98 484.17 L 582.71 491.03 L 576.14 497.40 L 569.16 503.40 L 562.01 508.87 L 554.67 513.83 L 547.13 518.28 L 539.30 522.29 L 531.40 525.76 L 523.41 528.69 L 515.33 531.10 L 507.08 533.01 L 498.86 534.36 L 490.66 535.16 L 482.45 535.41 L 474.24 535.11 L 466.14 534.23 L 458.14 532.78 L 450.23 530.75 L 442.50 528.15 L 434.96 524.94 L 427.58 521.12 L 420.36 516.66 L 413.52 511.64 L 407.21 506.24 L 401.42 500.45 L 396.11 494.26 L 391.26 487.68 L 386.92 480.81 L 383.07 473.63 L 379.70 466.13 L 376.86 458.42 L 374.53 450.52 L 372.70 442.40 L 371.37 434.04 L 370.58 425.64 L 370.31 417.13 L 370.56 408.51 L 371.34 399.75 L 372.64 391.09 L 374.48 382.42 L 376.87 373.74 L 379.83 365.02 L 383.27 356.55 L 387.28 348.16 L 391.87 339.86 L 397.06 331.63 L 402.74 323.73 L 408.72 316.37 L 414.99 309.51 L 421.56 303.14 L 428.53 297.14 L 435.68 291.66 L 443.03 286.71 L 450.57 282.26 L 458.40 278.25 L 466.30 274.78 L 474.28 271.85 L 482.37 269.43 L 490.61 267.53 L 498.83 266.18 L 507.03 265.38 L 515.24 265.13 L 523.46 265.43 L 531.55 266.31 L 539.55 267.76 L 547.47 269.79 L 555.20 272.39 L 562.74 275.60 L 570.11 279.42 L 577.33 283.88 L 584.17 288.90 L 590.48 294.30 L 596.28 300.09 L 601.59 306.28 L 606.44 312.86 L 610.78 319.73 L 614.63 326.91 L 617.99 334.41 L 620.83 342.11 L 623.16 350.02 L 625.00 358.14 L 626.32 366.50 L 627.11 374.90 L 627.39 383.40 L 627.14 392.03 L 626.35 400.79 L 625.05 409.45 L 623.21 418.11 L 620.82 426.80 L 617.86 435.51 L 614.42 443.99 L 610.42 452.37 L 605.83 460.68 L 600.64 468.91 Z" fill="none" group-id="1,3,11,30" node-id="276" stroke="#ffffff" stroke-linecap="butt" stroke-width="0.999861" target-height="270.2866" target-width="257.0787" target-x="370.30765" target-y="265.12564"></path><path d="M 538.06 429.53 L 534.89 433.63 L 531.41 437.14 L 527.59 440.11 L 523.43 442.58 L 519.13 444.47 L 514.66 445.79 L 510.05 446.54 L 505.47 446.68 L 500.87 446.21 L 497.49 445.46 L 494.21 444.34 L 491.00 442.86 L 487.86 440.99 L 484.94 438.78 L 482.37 436.36 L 480.11 433.73 L 478.14 430.88 L 475.98 426.79 L 474.39 422.49 L 473.36 417.95 L 472.91 413.30 L 473.04 408.61 L 473.78 403.82 L 475.10 399.17 L 477.05 394.63 L 479.66 390.15 L 482.83 386.06 L 486.31 382.55 L 490.13 379.58 L 494.29 377.10 L 498.59 375.22 L 503.06 373.90 L 507.66 373.15 L 512.25 373.01 L 516.85 373.48 L 520.23 374.23 L 523.51 375.34 L 526.72 376.83 L 529.86 378.70 L 532.77 380.91 L 535.35 383.33 L 537.61 385.96 L 539.58 388.81 L 541.74 392.90 L 543.33 397.20 L 544.36 401.74 L 544.81 406.39 L 544.68 411.08 L 543.94 415.86 L 542.62 420.52 L 540.67 425.06 L 538.06 429.53 Z" fill="url(#linear-gradient-6)" fill-rule="nonzero" group-id="1,3,12,31" id="椭圆_6-2" node-id="81" stroke="none" target-height="73.66287" target-width="71.90485" target-x="472.9068" target-y="373.01236"></path><path d="M 538.09 429.64 L 534.92 433.74 L 531.43 437.25 L 527.60 440.23 L 523.44 442.70 L 519.13 444.59 L 514.65 445.91 L 510.04 446.66 L 505.45 446.79 L 500.85 446.33 L 497.46 445.57 L 494.17 444.46 L 490.96 442.97 L 487.81 441.10 L 484.90 438.88 L 482.32 436.46 L 480.05 433.83 L 478.09 430.97 L 475.93 426.87 L 474.34 422.57 L 473.30 418.02 L 472.85 413.36 L 472.99 408.66 L 473.73 403.88 L 475.05 399.22 L 477.00 394.66 L 479.62 390.19 L 482.79 386.09 L 486.28 382.57 L 490.11 379.60 L 494.27 377.12 L 498.58 375.24 L 503.06 373.91 L 507.67 373.17 L 512.26 373.03 L 516.86 373.50 L 520.25 374.25 L 523.54 375.37 L 526.75 376.85 L 529.90 378.73 L 532.81 380.94 L 535.39 383.37 L 537.65 386.00 L 539.62 388.86 L 541.78 392.95 L 543.37 397.26 L 544.41 401.81 L 544.86 406.46 L 544.72 411.16 L 543.98 415.95 L 542.66 420.61 L 540.71 425.16 L 538.09 429.64 Z" fill="#ffffff" fill-rule="nonzero" filter="url(#椭圆_6)" group-id="1,3,12,32,38" id="椭圆_6-3" node-id="83" stroke="none" target-height="73.763306" target-width="72.00656" target-x="472.8516" target-y="373.03094"></path><path d="M 387.25 294.22 L 391.40 290.06 L 391.99 289.67 L 392.65 289.55 L 393.30 289.67 L 393.89 290.06 L 510.96 407.14 L 511.35 407.72 L 511.48 408.38 L 511.35 409.03 L 510.96 409.62 L 506.81 413.78 L 506.22 414.16 L 505.56 414.29 L 504.91 414.16 L 504.32 413.78 L 387.25 296.70 L 386.86 296.12 L 386.73 295.46 L 386.86 294.80 L 387.25 294.22 Z" fill="#ffffff" fill-rule="nonzero" group-id="1,3,13" id="矩形_1" node-id="84" stroke="none" target-height="124.743195" target-width="124.743195" target-x="386.7328" target-y="289.54764"></path><path d="M 416.23 283.50 L 415.91 288.03 L 415.04 292.30 L 413.63 296.34 L 411.71 300.17 L 409.36 303.66 L 406.56 306.83 L 403.39 309.62 L 399.91 311.98 L 396.08 313.90 L 392.03 315.31 L 387.76 316.18 L 383.23 316.50 L 378.70 316.18 L 374.43 315.31 L 370.39 313.90 L 366.56 311.98 L 363.08 309.62 L 359.90 306.83 L 357.11 303.66 L 354.76 300.17 L 352.83 296.34 L 351.42 292.30 L 350.55 288.03 L 350.24 283.50 L 350.55 278.97 L 351.42 274.70 L 352.83 270.66 L 354.76 266.83 L 357.11 263.34 L 359.90 260.17 L 363.08 257.38 L 366.56 255.03 L 370.39 253.10 L 374.43 251.69 L 378.70 250.82 L 383.23 250.51 L 387.76 250.82 L 392.03 251.69 L 396.08 253.10 L 399.91 255.03 L 403.39 257.38 L 406.56 260.17 L 409.36 263.34 L 411.71 266.83 L 413.63 270.66 L 415.04 274.70 L 415.91 278.97 L 416.23 283.50 Z" fill="url(#linear-gradient-6)" fill-rule="nonzero" group-id="1,3,14,33" id="椭圆_7-2" node-id="86" stroke="none" target-height="65.98599" target-width="65.98599" target-x="350.24" target-y="250.509"></path><path d="M 416.23 283.50 L 415.91 288.04 L 415.04 292.30 L 413.63 296.35 L 411.71 300.18 L 409.35 303.66 L 406.56 306.83 L 403.39 309.63 L 399.90 311.98 L 396.07 313.90 L 392.03 315.32 L 387.76 316.18 L 383.23 316.50 L 378.70 316.18 L 374.43 315.32 L 370.39 313.90 L 366.56 311.98 L 363.07 309.63 L 359.90 306.83 L 357.11 303.66 L 354.76 300.18 L 352.83 296.35 L 351.42 292.30 L 350.55 288.04 L 350.24 283.50 L 350.55 278.97 L 351.42 274.71 L 352.83 270.66 L 354.76 266.83 L 357.11 263.35 L 359.90 260.17 L 363.07 257.38 L 366.56 255.03 L 370.39 253.10 L 374.43 251.69 L 378.70 250.83 L 383.23 250.51 L 387.76 250.83 L 392.03 251.69 L 396.07 253.10 L 399.90 255.03 L 403.39 257.38 L 406.56 260.17 L 409.35 263.35 L 411.71 266.83 L 413.63 270.66 L 415.04 274.71 L 415.91 278.97 L 416.23 283.50 Z" fill="#ffffff" fill-rule="nonzero" filter="url(#椭圆_7)" group-id="1,3,14,34,39" id="椭圆_7-3" node-id="88" stroke="none" target-height="65.98599" target-width="65.98599" target-x="350.239" target-y="250.51099"></path><path d="M 392.74 283.50 L 392.58 285.24 L 392.15 286.83 L 391.44 288.30 L 389.96 290.23 L 388.03 291.71 L 386.56 292.42 L 384.97 292.85 L 383.23 293.01 L 381.50 292.85 L 379.91 292.42 L 378.43 291.71 L 376.51 290.23 L 375.02 288.30 L 374.32 286.83 L 373.88 285.24 L 373.72 283.50 L 373.88 281.77 L 374.32 280.18 L 375.02 278.70 L 376.51 276.78 L 378.43 275.29 L 379.91 274.59 L 381.50 274.15 L 383.23 273.99 L 384.97 274.15 L 386.56 274.59 L 388.03 275.29 L 389.96 276.78 L 391.44 278.70 L 392.15 280.18 L 392.58 281.77 L 392.74 283.50 Z" fill="#f1f1f1" fill-rule="nonzero" group-id="1,3,15" id="椭圆_8" node-id="89" stroke="none" target-height="19.019989" target-width="19.019989" target-x="373.72202" target-y="273.992"></path><path d="M 322.94 368.38 L 315.86 377.44 L 309.75 372.27 L 304.12 366.84 L 298.97 361.14 L 294.26 355.18 L 289.94 348.88 L 286.09 342.42 L 282.69 335.77 L 279.75 328.93 L 277.24 321.90 L 275.20 314.79 L 273.62 307.58 L 272.50 300.25 L 271.85 292.87 L 271.67 285.49 L 271.95 278.09 L 272.72 270.67 L 273.95 263.32 L 275.67 256.06 L 277.87 248.87 L 280.57 241.73 L 283.72 234.81 L 287.38 228.06 L 291.55 221.44 L 296.25 214.97 L 301.40 208.84 L 306.80 203.19 L 312.48 198.01 L 318.42 193.28 L 324.70 188.93 L 331.14 185.05 L 337.78 181.63 L 344.61 178.66 L 351.62 176.12 L 358.73 174.05 L 365.94 172.44 L 373.26 171.29 L 380.64 170.61 L 388.02 170.39 L 395.41 170.65 L 402.84 171.38 L 410.19 172.59 L 417.46 174.27 L 424.66 176.45 L 431.81 179.12 L 438.74 182.24 L 445.51 185.87 L 452.14 190.01 L 458.64 194.69 L 451.56 203.75 L 445.92 199.65 L 440.18 196.00 L 434.33 192.79 L 428.36 190.00 L 422.26 187.62 L 414.40 185.18 L 406.51 183.37 L 398.56 182.20 L 390.53 181.65 L 382.48 181.71 L 374.51 182.38 L 366.63 183.66 L 358.79 185.55 L 351.14 188.02 L 343.71 191.09 L 336.49 194.74 L 329.45 199.01 L 324.11 202.80 L 318.99 206.95 L 314.09 211.48 L 309.41 216.41 L 304.93 221.75 L 300.83 227.39 L 297.18 233.13 L 293.97 238.98 L 291.18 244.95 L 288.80 251.05 L 286.36 258.91 L 284.55 266.80 L 283.38 274.75 L 282.83 282.78 L 282.89 290.83 L 283.56 298.80 L 284.84 306.68 L 286.73 314.52 L 289.20 322.17 L 292.27 329.60 L 295.92 336.82 L 300.19 343.86 L 303.98 349.20 L 308.13 354.32 L 312.66 359.22 L 317.59 363.90 L 322.93 368.38 Z" fill="#c8c8c8" fill-rule="nonzero" group-id="1,3,16" id="减去_3" node-id="90" stroke="none" target-height="207.04353" target-width="186.97263" target-x="271.66605" target-y="170.39482"></path><path d="M 342.13 343.81 L 342.13 343.81 L 337.16 350.17 L 332.06 345.77 L 327.46 341.13 L 323.33 336.22 L 319.65 331.05 L 316.37 325.58 L 313.56 319.96 L 311.21 314.19 L 309.31 308.25 L 307.88 302.17 L 306.91 296.05 L 306.41 289.87 L 306.38 283.62 L 306.82 277.40 L 307.75 271.24 L 309.16 265.12 L 311.06 259.03 L 313.43 253.14 L 316.29 247.40 L 319.67 241.80 L 323.58 236.33 L 327.94 231.20 L 332.56 226.57 L 337.43 222.41 L 342.58 218.69 L 348.03 215.37 L 353.62 212.52 L 359.38 210.13 L 365.31 208.19 L 371.38 206.71 L 377.49 205.70 L 383.67 205.16 L 389.91 205.09 L 396.14 205.49 L 402.31 206.37 L 408.44 207.73 L 414.54 209.59 L 420.45 211.92 L 426.21 214.74 L 431.83 218.08 L 437.33 221.96 L 432.36 228.32 L 427.40 224.78 L 422.33 221.72 L 417.14 219.13 L 411.80 217.00 L 406.29 215.29 L 400.76 214.03 L 395.18 213.20 L 389.55 212.82 L 383.89 212.86 L 378.31 213.33 L 372.78 214.23 L 367.28 215.55 L 361.91 217.29 L 356.70 219.44 L 351.63 222.00 L 346.70 225.00 L 342.04 228.36 L 337.62 232.12 L 333.44 236.31 L 329.49 240.95 L 325.95 245.90 L 322.90 250.97 L 320.31 256.17 L 318.18 261.50 L 316.47 267.01 L 315.20 272.55 L 314.38 278.13 L 313.99 283.76 L 314.04 289.41 L 314.51 295.00 L 315.40 300.53 L 316.72 306.02 L 318.46 311.40 L 320.61 316.61 L 323.18 321.67 L 326.17 326.61 L 329.53 331.27 L 333.30 335.68 L 337.49 339.86 L 342.12 343.81 Z" fill="#c8c8c8" fill-rule="nonzero" group-id="1,3,17" id="减去_4" node-id="91" stroke="none" target-height="145.08582" target-width="130.94879" target-x="306.37894" target-y="205.08505"></path><path d="M 211.22 604.24 L 219.24 604.24 L 219.24 671.08 L 211.22 671.08 Z" fill="#c5c5c5" fill-rule="nonzero" group-id="1,4,18" id="矩形_4" node-id="93" stroke="none" target-height="66.841" target-width="8.020996" target-x="211.21701" target-y="604.241"></path><path d="M 215.47 496.83 L 217.81 499.51 L 223.85 506.71 L 232.10 517.20 L 236.56 523.23 L 241.10 529.75 L 245.43 536.43 L 249.35 543.10 L 252.80 549.82 L 255.39 556.02 L 256.72 560.21 L 257.47 563.94 L 257.74 567.28 L 257.50 571.67 L 256.86 575.86 L 255.83 579.87 L 254.41 583.73 L 252.61 587.45 L 250.51 590.92 L 248.09 594.16 L 245.35 597.17 L 242.34 599.91 L 239.11 602.32 L 235.64 604.43 L 231.92 606.23 L 228.06 607.65 L 224.04 608.68 L 219.85 609.31 L 215.47 609.55 L 211.08 609.31 L 206.89 608.68 L 202.87 607.65 L 199.01 606.23 L 195.29 604.43 L 191.82 602.32 L 188.59 599.91 L 185.58 597.17 L 182.84 594.16 L 180.42 590.92 L 178.32 587.45 L 176.52 583.73 L 175.10 579.87 L 174.07 575.86 L 173.43 571.67 L 173.19 567.28 L 173.46 563.94 L 174.21 560.21 L 175.54 556.02 L 178.13 549.82 L 181.58 543.10 L 185.50 536.43 L 189.83 529.75 L 194.37 523.23 L 198.83 517.20 L 207.08 506.71 L 213.12 499.51 L 215.47 496.83 Z" fill="url(#linear-gradient-8)" fill-rule="nonzero" group-id="1,4,19" id="路径_3" node-id="94" stroke="none" target-height="112.71997" target-width="84.54001" target-x="173.195" target-y="496.828"></path><path d="M 799.42 633.65 L 807.44 633.65 L 807.44 689.80 L 799.42 689.80 Z" fill="#c5c5c5" fill-rule="nonzero" group-id="1,5,20" id="矩形_4-2" node-id="96" stroke="none" target-height="56.145996" target-width="8.020996" target-x="799.41504" target-y="633.651"></path><path d="M 804.58 542.40 L 806.58 544.69 L 811.74 550.85 L 818.79 559.81 L 822.59 564.96 L 826.47 570.52 L 830.17 576.23 L 833.52 581.93 L 836.47 587.67 L 838.68 592.97 L 839.81 596.55 L 840.45 599.73 L 840.68 602.58 L 840.48 606.33 L 839.93 609.90 L 839.05 613.33 L 837.84 616.63 L 835.73 620.82 L 833.16 624.63 L 830.11 628.10 L 826.64 631.16 L 822.82 633.73 L 818.63 635.84 L 815.34 637.05 L 811.91 637.93 L 808.33 638.47 L 804.58 638.67 L 800.84 638.47 L 797.26 637.93 L 793.83 637.05 L 790.53 635.84 L 786.34 633.73 L 782.53 631.16 L 779.06 628.10 L 776.01 624.63 L 773.43 620.82 L 771.33 616.63 L 770.11 613.33 L 769.23 609.90 L 768.69 606.33 L 768.49 602.58 L 768.71 599.73 L 769.36 596.55 L 770.49 592.97 L 772.70 587.67 L 775.64 581.93 L 778.99 576.23 L 782.70 570.52 L 786.57 564.96 L 790.38 559.81 L 797.43 550.85 L 802.58 544.69 L 804.58 542.40 Z" fill="url(#linear-gradient-8)" fill-rule="nonzero" group-id="1,5,21" id="路径_3-2" node-id="97" stroke="none" target-height="96.26703" target-width="72.18799" target-x="768.489" target-y="542.40497"></path><path d="M 881.07 677.82 L 886.37 677.82 L 886.37 709.62 L 881.07 709.62 Z" fill="#c5c5c5" fill-rule="nonzero" group-id="1,6,22" id="矩形_4-3" node-id="99" stroke="none" target-height="31.796997" target-width="5.299011" target-x="881.07306" target-y="677.821"></path><path d="M 884.55 625.88 L 886.06 627.61 L 889.83 632.18 L 894.74 638.63 L 897.26 642.27 L 899.64 646.03 L 901.77 649.85 L 903.41 653.41 L 904.26 655.83 L 904.75 657.96 L 904.92 659.83 L 904.57 663.55 L 903.65 666.96 L 902.14 670.11 L 900.12 672.97 L 897.69 675.40 L 894.83 677.42 L 891.68 678.93 L 888.27 679.86 L 884.55 680.20 L 880.83 679.86 L 877.43 678.93 L 874.27 677.42 L 871.41 675.40 L 868.99 672.97 L 866.96 670.11 L 865.46 666.96 L 864.53 663.55 L 864.18 659.83 L 864.35 657.96 L 864.84 655.83 L 865.69 653.41 L 867.33 649.85 L 869.46 646.03 L 871.85 642.27 L 874.37 638.63 L 879.27 632.18 L 883.04 627.61 L 884.55 625.88 Z" fill="url(#linear-gradient-8)" fill-rule="nonzero" group-id="1,6,23" id="路径_3-3" node-id="100" stroke="none" target-height="54.325012" target-width="40.73999" target-x="864.181" target-y="625.878"></path></g></svg>